<?xml version="1.0" encoding="iso-8859-1"?>
<!-- Generator: Adobe Illustrator 16.0.0, SVG Export Plug-In . SVG Version: 6.00 Build 0)  -->
<!DOCTYPE svg PUBLIC "-//W3C//DTD SVG 1.1//EN" "http://www.w3.org/Graphics/SVG/1.1/DTD/svg11.dtd">
<svg version="1.1" id="Capa_1" xmlns="http://www.w3.org/2000/svg" xmlns:xlink="http://www.w3.org/1999/xlink" x="0px" y="0px"
	 width="99.213px" height="99.213px" viewBox="0 0 99.213 99.213" style="enable-background:new 0 0 99.213 99.213;"
	 xml:space="preserve">
<g>
	<g>
		<path d="M99.028,45.872c-0.119-0.118-0.28-0.186-0.447-0.185l-43.616,0.059L54.2,36.729c-0.237-2.797-2.641-4.905-5.444-4.776
			l-12.437,0.569c-2.064,0.096-3.879,1.397-4.628,3.323l-2.231,5.73L8.753,42.678c-2.545,0.136-4.661,2.01-5.103,4.521L1.748,58.014
			l-0.963,0.8c-0.523,0.436-0.813,1.09-0.783,1.771c0.031,0.68,0.378,1.307,0.938,1.691l0.581,0.4
			c0.864,0.595,2.03,0.488,2.771-0.253l0.604-0.604c0.287-0.286,0.452-0.671,0.462-1.074c0.065-2.482,1.645-8.659,8.745-8.659
			c3.555,0,8.437,2.832,8.437,8.983c0,1.374,1.073,3.056,4.572,3.056h8.675c2.29,0,4.486-0.909,6.106-2.528l27.787,0.223
			c-0.58-4.692,2.876-9.73,8.278-9.73c8.677,0,8.883,9.523,13.369,9.523c0.378,0,1.514,0,1.514,0
			c2.733,0.001,4.954-2.211,4.965-4.943l0.038-9.718h0.739c0.349,0,0.63-0.281,0.63-0.63C99.215,46.151,99.147,45.991,99.028,45.872
			z M48.019,40.835c-0.015,0.803-0.654,1.455-1.456,1.483l-7.399,0.273l-1.637-3.124c-0.261-0.496-0.874-0.689-1.369-0.429
			c-0.497,0.26-0.688,0.873-0.428,1.369l1.187,2.267l-1.244,0.046c-0.405,0.015-0.792-0.165-1.041-0.483
			c-0.25-0.318-0.331-0.737-0.219-1.127l1.183-4.108c0.309-1.074,1.273-1.829,2.389-1.871l8.549-0.321
			c0.416-0.015,0.819,0.143,1.116,0.433c0.297,0.292,0.461,0.691,0.453,1.107L48.019,40.835z"/>
		<path d="M13.866,54.006c-3.662,0.036-6.601,3.03-6.567,6.692c0.003,0.284,0.029,0.561,0.067,0.833
			c0.441,3.266,3.248,5.767,6.626,5.734c3.473-0.032,6.29-2.727,6.545-6.127c0.014-0.187,0.025-0.376,0.023-0.566
			C20.527,56.911,17.529,53.971,13.866,54.006z M13.316,56.529l0.019,1.906c-0.208,0.058-0.403,0.141-0.584,0.252l-1.364-1.34
			C11.938,56.922,12.594,56.636,13.316,56.529z M10.584,58.168l1.367,1.341c-0.105,0.183-0.185,0.378-0.236,0.585l-1.906,0.02
			C9.901,59.389,10.171,58.728,10.584,58.168z M9.813,61.26l1.919-0.018c0.056,0.205,0.138,0.396,0.246,0.572l-1.342,1.369
			C10.213,62.635,9.921,61.979,9.813,61.26z M11.463,63.981l1.335-1.36c0.178,0.101,0.374,0.178,0.578,0.227l0.019,1.913
			C12.676,64.667,12.019,64.392,11.463,63.981z M18.04,60.036l-1.907,0.019c-0.055-0.208-0.139-0.399-0.246-0.582l1.34-1.365
			C17.652,58.657,17.934,59.312,18.04,60.036z M14.464,56.518c0.725,0.096,1.386,0.368,1.944,0.783l-1.337,1.364
			c-0.183-0.107-0.38-0.188-0.59-0.239L14.464,56.518z M14.542,64.748l-0.018-1.911c0.204-0.055,0.397-0.134,0.574-0.24l1.361,1.338
			C15.911,64.355,15.26,64.645,14.542,64.748z M17.274,63.124l-1.372-1.346c0.103-0.18,0.189-0.371,0.242-0.578l1.904-0.019
			C17.953,61.901,17.689,62.568,17.274,63.124z"/>
		<path d="M78.109,54.006c-3.662,0.036-6.602,3.03-6.567,6.692c0.003,0.284,0.029,0.561,0.066,0.833
			c0.441,3.266,3.248,5.767,6.626,5.734c3.473-0.032,6.29-2.727,6.546-6.127c0.014-0.187,0.025-0.376,0.023-0.566
			C84.771,56.911,81.772,53.971,78.109,54.006z M77.56,56.529l0.018,1.906c-0.208,0.058-0.402,0.141-0.584,0.252l-1.364-1.34
			C76.183,56.922,76.837,56.636,77.56,56.529z M74.827,58.168l1.367,1.341c-0.104,0.183-0.185,0.378-0.235,0.585l-1.905,0.02
			C74.145,59.389,74.414,58.728,74.827,58.168z M74.057,61.26l1.92-0.018c0.056,0.205,0.138,0.396,0.246,0.572l-1.344,1.369
			C74.456,62.635,74.164,61.979,74.057,61.26z M75.706,63.981l1.335-1.36c0.179,0.101,0.374,0.178,0.578,0.227l0.02,1.913
			C76.919,64.667,76.264,64.392,75.706,63.981z M82.284,60.036l-1.907,0.019c-0.055-0.208-0.139-0.399-0.245-0.582l1.34-1.365
			C81.896,58.657,82.178,59.312,82.284,60.036z M78.707,56.518c0.726,0.096,1.387,0.368,1.944,0.783l-1.337,1.364
			c-0.183-0.107-0.379-0.188-0.589-0.239L78.707,56.518z M78.786,64.748l-0.018-1.911c0.204-0.055,0.396-0.134,0.574-0.24
			l1.36,1.338C80.155,64.355,79.503,64.645,78.786,64.748z M81.518,63.124l-1.372-1.346c0.103-0.18,0.188-0.371,0.242-0.578
			l1.903-0.019C82.197,61.901,81.933,62.568,81.518,63.124z"/>
	</g>
</g>
<g>
</g>
<g>
</g>
<g>
</g>
<g>
</g>
<g>
</g>
<g>
</g>
<g>
</g>
<g>
</g>
<g>
</g>
<g>
</g>
<g>
</g>
<g>
</g>
<g>
</g>
<g>
</g>
<g>
</g>
</svg>
